# xmcd
#
# Track frame offsets:
#	150
#	13160
#	23160
#	34329
#	45769
#	54365
#	65548
#	77193
#	93048
#	107831
#	119145
#	130487
#
# Disc length: 1927 seconds
#
# Revision: 1
# Processed by: cddbd v1.5.1PL0 Copyright (c) Steve Scherf et al.
# Submitted via: EasyCDDAExtractor 6.0.0.1
#
DISCID=9c07850c
DTITLE=Various Artist - Country Caravan
DYEAR=2004
DGENRE=Country
TTITLE0=Arne Benoni - If I Live To Be A Hundred
TTITLE1=Arne Benoni - Billy Bayou
TTITLE2=Arne Benoni - Yonder Comes A Sucker
TTITLE3=Arne Benoni - Adios Amigo
TTITLE4=Tomboola Band - The First Time
TTITLE5=Tomboola Band - We Light You Up
TTITLE6=Tomboola Band - The Bottle Let Me Down
TTITLE7=Tomboola Band - If Tomorrow Never Comes
TTITLE8=Bo Young - Fast As You
TTITLE9=Bo Young - She's Got The Rhythm - I've Got The Blues
TTITLE10=Bo Young - Lisa Jane
TTITLE11=Arly Karlsen - 500 Miles Away From Home
EXTD=
EXTT0=
EXTT1=
EXTT2=
EXTT3=
EXTT4=
EXTT5=
EXTT6=
EXTT7=
EXTT8=
EXTT9=
EXTT10=
EXTT11=
PLAYORDER=
